<svg xmlns="http://www.w3.org/2000/svg" viewBox="0 0 300 100" width="300" height="100">
  <defs>
    <linearGradient id="ssGradient" x1="0%" y1="0%" x2="100%" y2="100%">
      <stop offset="0%" style="stop-color:#ee202e"/>
      <stop offset="100%" style="stop-color:#9a1220"/>
    </linearGradient>
  </defs>

  <!-- First S curve -->
  <path d="M 30 20 Q 60 20 60 35 Q 60 50 35 50 Q 10 50 10 65 Q 10 80 40 80"
        stroke="url(#ssGradient)" stroke-width="12" fill="none" stroke-linecap="round"/>

  <!-- Second S curve -->
  <path d="M 55 20 Q 85 20 85 35 Q 85 50 60 50 Q 35 50 35 65 Q 35 80 65 80"
        stroke="url(#ssGradient)" stroke-width="12" fill="none" stroke-linecap="round"/>

  <!-- Play button triangle -->
  <polygon points="22,45 22,70 42,57.5" fill="#1a1a1a"/>

  <!-- Small square/stop button -->
  <rect x="78" y="15" width="10" height="10" rx="2" fill="#1a1a1a"/>

  <!-- Registered trademark -->
  <text x="92" y="22" font-family="Arial" font-size="8" fill="#1a1a1a">R</text>
  <circle cx="94" cy="19" r="5" stroke="#1a1a1a" stroke-width="1" fill="none"/>

  <!-- PRODUCTIONS text -->
  <text x="110" y="58" font-family="Taviraj, Georgia, serif" font-size="20" letter-spacing="8" fill="#1a1a1a">PRODUCTIONS</text>
</svg>
